<?xml version="1.0" standalone="no"?>
<!DOCTYPE svg PUBLIC "-//W3C//DTD SVG 20010904//EN"
 "http://www.w3.org/TR/2001/REC-SVG-20010904/DTD/svg10.dtd">
<svg version="1.0" xmlns="http://www.w3.org/2000/svg"
 width="512.000000pt" height="512.000000pt" viewBox="0 0 512.000000 512.000000"
 preserveAspectRatio="xMidYMid meet">
<metadata>
Created by potrace 1.11, written by Peter Selinger 2001-2013
</metadata>
<g transform="translate(0.000000,512.000000) scale(0.100000,-0.100000)"
fill="#000000" stroke="none">
<path d="M2345 5053 c-92 -7 -267 -37 -375 -63 -192 -47 -472 -154 -453 -173
3 -4 -1 -7 -11 -7 -9 0 -14 -4 -11 -10 11 -17 -5 -32 -20 -20 -11 9 -13 6 -11
-15 3 -20 1 -23 -10 -14 -11 9 -14 7 -14 -10 0 -11 -6 -20 -12 -18 -7 1 -12
-6 -12 -15 1 -10 -2 -15 -7 -12 -11 7 -40 -21 -31 -30 3 -4 -2 -4 -12 0 -14 5
-17 4 -12 -4 4 -7 1 -12 -7 -12 -8 0 -18 -11 -21 -25 -4 -14 -13 -25 -22 -25
-8 0 -13 -4 -10 -8 2 -4 1 -14 -5 -22 -6 -10 -9 -11 -9 -2 0 6 -4 12 -10 12
-5 0 -10 -8 -10 -17 0 -9 -3 -13 -6 -10 -11 11 -43 -33 -37 -51 4 -15 3 -15
-6 -2 -9 13 -12 13 -23 1 -10 -10 -10 -12 0 -7 6 4 12 3 12 -2 0 -10 -30 -26
-43 -23 -4 1 -7 -7 -5 -16 2 -10 -2 -17 -9 -16 -7 2 -13 -4 -13 -12 0 -9 -6
-12 -15 -9 -11 4 -15 -1 -16 -17 0 -13 -3 -19 -5 -12 -7 15 -54 -24 -54 -45 0
-9 -6 -12 -16 -8 -12 4 -15 2 -11 -9 7 -18 -9 -30 -17 -13 -4 7 -4 3 -2 -10 3
-17 1 -22 -9 -18 -9 3 -12 0 -9 -8 3 -7 -2 -19 -11 -26 -13 -11 -15 -10 -9 6
6 18 6 18 -9 -1 -8 -11 -13 -23 -11 -27 5 -8 -11 -12 -30 -9 -5 1 -6 -5 -3
-13 4 -10 1 -13 -9 -9 -8 3 -14 -1 -14 -11 0 -9 -6 -15 -12 -14 -8 2 -13 -6
-12 -19 1 -13 -2 -20 -6 -18 -15 9 -39 -6 -33 -21 4 -10 0 -12 -11 -8 -9 3
-16 2 -16 -4 0 -6 6 -13 13 -15 6 -3 0 -6 -15 -6 -19 -1 -26 -5 -22 -15 3 -8
1 -17 -5 -21 -6 -3 -11 -1 -11 5 0 22 -30 -19 -31 -42 0 -21 -1 -21 -8 -4 -7
18 -9 16 -22 -12 -8 -18 -18 -32 -24 -32 -15 0 -72 -49 -57 -50 6 0 12 4 12 9
0 5 9 11 20 14 30 8 15 -8 -25 -27 -19 -9 -34 -22 -32 -29 1 -6 -8 -13 -20
-15 -13 -2 -23 -9 -23 -16 0 -13 -45 -56 -59 -56 -5 0 -15 -8 -22 -17 -13 -16
-12 -17 4 -4 15 12 17 12 11 -3 -6 -15 -18 -21 -39 -16 -5 1 -7 -2 -3 -6 4 -4
0 -13 -10 -21 -9 -8 -11 -12 -4 -8 6 3 12 1 12 -6 0 -7 -10 -9 -25 -7 -20 4
-23 3 -14 -8 9 -11 8 -14 -4 -14 -8 0 -18 -7 -21 -16 -3 -8 -10 -12 -16 -9 -5
3 -10 2 -10 -4 0 -5 6 -12 13 -14 11 -5 -17 -11 -36 -8 -4 0 -6 -2 -6 -6 1 -5
1 -15 0 -23 -1 -12 -3 -12 -9 -2 -12 18 -103 -215 -146 -370 -167 -610 -98
-1270 190 -1818 274 -521 725 -931 1269 -1153 112 -46 303 -107 335 -107 39 0
168 217 205 344 41 143 72 363 86 611 7 127 12 255 10 285 -3 67 -29 147 -85
259 -58 115 -100 238 -115 336 -14 94 -104 351 -163 468 -60 121 -88 201 -88
257 0 41 4 52 24 65 47 31 100 -14 161 -135 40 -79 176 -290 199 -310 15 -11
19 -11 31 1 12 12 7 40 -36 194 -91 334 -119 450 -119 502 0 44 4 55 26 72 65
51 107 9 152 -149 49 -170 144 -440 166 -468 17 -21 20 -22 34 -8 13 13 14 31
3 143 -6 70 -11 160 -11 198 0 39 -5 143 -12 231 -11 148 -10 164 5 188 31 46
117 30 141 -26 18 -39 66 -443 73 -615 4 -79 10 -127 18 -133 21 -17 44 0 54
39 29 121 64 355 72 476 7 111 13 145 27 165 43 57 114 51 145 -12 17 -34 17
-51 8 -220 -6 -101 -13 -241 -16 -313 -3 -71 -8 -185 -11 -253 -7 -133 4 -198
37 -228 18 -16 21 -15 56 9 58 39 86 66 153 145 74 87 120 120 182 128 38 5
49 3 67 -15 27 -27 27 -50 -4 -92 -13 -19 -43 -71 -66 -116 -23 -46 -71 -118
-106 -160 -36 -43 -92 -116 -124 -163 -32 -47 -100 -130 -150 -185 -51 -55
-99 -116 -108 -135 -26 -59 -27 -335 -2 -575 43 -408 108 -611 248 -765 34
-39 40 -41 76 -36 62 10 262 80 384 135 791 352 1346 1101 1457 1961 32 251
29 448 -10 705 -68 436 -246 838 -524 1184 -100 124 -309 327 -430 417 -370
278 -800 448 -1249 493 -94 10 -378 12 -476 4z m-1265 -691 c0 -5 -7 -9 -15
-9 -8 0 -12 4 -9 9 3 4 9 8 15 8 5 0 9 -4 9 -8z m1550 -17 c16 -9 32 -25 34
-38 10 -47 16 -187 9 -187 -19 0 -183 152 -183 169 0 10 9 30 21 45 24 31 73
35 119 11z m-270 -40 c23 -12 239 -196 348 -296 54 -49 53 -76 0 -102 -44 -22
-44 -21 -27 -223 6 -69 8 -137 5 -150 -9 -35 -53 -53 -141 -56 -100 -3 -110 8
-119 121 -3 45 -9 118 -12 162 l-7 82 -94 -6 c-52 -3 -96 -7 -98 -9 -1 -2 2
-79 8 -171 12 -204 15 -198 -105 -208 -92 -8 -134 5 -143 44 -5 22 -25 281
-25 325 0 16 -6 22 -23 22 -34 0 -67 28 -67 56 0 22 121 171 286 352 72 78
138 96 214 57z m891 -101 c42 -21 74 -94 60 -134 -5 -16 -7 -31 -3 -34 4 -2
44 8 89 21 115 36 126 32 157 -64 13 -43 29 -79 35 -81 6 -2 11 1 11 7 0 6 15
20 33 31 84 52 186 -4 187 -103 0 -82 -56 -133 -137 -124 -28 3 -43 1 -43 -7
0 -6 11 -46 25 -89 28 -86 31 -129 13 -145 -12 -9 -112 -42 -129 -42 -5 0 -6
21 -3 48 8 62 -23 111 -82 131 -37 13 -44 12 -79 -5 -82 -40 -103 -120 -50
-190 15 -19 24 -38 21 -41 -15 -16 -222 -70 -241 -64 -15 6 -29 35 -57 117
-46 137 -46 138 -8 131 102 -21 185 74 146 167 -32 77 -136 99 -195 42 -15
-14 -30 -26 -33 -26 -8 0 -38 101 -38 127 0 28 26 47 95 67 105 32 113 36 92
47 -24 14 -49 66 -49 104 0 94 99 153 183 109z m-1937 -348 c38 -45 47 -63 52
-108 l6 -54 -190 -176 -191 -177 -52 14 c-39 11 -65 26 -101 62 -26 26 -48 55
-48 64 0 19 54 69 74 69 8 0 25 -9 39 -21 30 -23 46 -18 86 24 l23 26 -21 27
c-31 39 -26 57 23 98 51 41 66 44 91 16 25 -27 36 -25 74 14 l34 35 -22 27
c-11 15 -21 32 -21 37 0 18 62 77 81 77 9 0 37 -24 63 -54z m258 -371 c105
-88 173 -153 173 -164 0 -22 -382 -376 -406 -376 -19 0 -279 354 -279 380 0
17 307 305 326 305 7 0 91 -65 186 -145z m362 -211 c37 -43 46 -59 40 -73 -12
-23 -521 -495 -539 -499 -20 -5 -115 99 -114 123 1 26 516 503 544 504 12 1
39 -21 69 -55z m1752 -50 c22 -10 49 -40 78 -83 58 -88 125 -147 189 -166 67
-20 109 -19 198 5 121 32 174 23 218 -39 56 -78 72 -304 32 -454 -46 -173
-114 -267 -194 -267 -71 0 -105 32 -172 159 -64 124 -98 160 -190 202 -157 71
-231 74 -382 15 -107 -42 -171 -46 -220 -16 -73 44 -67 152 18 329 45 91 62
116 142 196 128 128 200 158 283 119z m-2736 -342 c33 -17 47 -35 93 -108 9
-16 26 -44 38 -62 17 -26 22 -53 26 -135 3 -73 9 -110 22 -132 l18 -30 83 3
c46 2 104 10 129 18 90 27 156 13 224 -46 25 -23 55 -56 67 -76 19 -30 20 -37
9 -55 -21 -30 -838 -460 -869 -457 -33 4 -60 60 -67 138 -7 79 14 136 72 189
67 61 145 160 145 182 0 25 -27 79 -40 79 -6 0 -27 15 -47 34 -21 18 -47 36
-58 40 -22 6 -75 84 -75 109 0 9 -11 37 -25 63 -37 70 -29 144 22 205 58 68
149 84 233 41z m2937 -801 c32 -15 65 -49 142 -147 56 -70 101 -132 101 -139
0 -36 -26 -45 -194 -70 l-169 -26 -46 23 c-36 18 -65 48 -134 138 -48 63 -90
126 -93 138 -11 42 15 54 168 78 179 27 175 27 225 5z m-2198 -61 c80 -20 94
-32 85 -70 -10 -47 -27 -55 -87 -41 -122 27 -127 29 -127 62 0 39 16 69 38 69
9 0 50 -9 91 -20z m1763 -87 c41 -46 151 -195 170 -233 28 -53 21 -104 -35
-254 -51 -137 -69 -165 -100 -153 -22 8 -191 236 -205 276 -7 19 -12 44 -12
57 0 26 96 302 112 322 17 20 42 14 70 -15z m-1780 -63 c89 -25 191 -126 223
-219 22 -65 19 -179 -6 -245 -59 -159 -243 -254 -410 -212 -258 66 -354 377
-177 571 100 109 227 145 370 105z m287 -92 l33 -52 -22 -18 c-12 -10 -26 -18
-30 -18 -5 0 -22 24 -39 53 l-30 52 22 17 c12 10 25 18 28 18 3 0 21 -23 38
-52z m2179 -100 c19 -19 15 -35 -38 -172 -86 -219 -84 -218 -302 -250 -84 -13
-161 -21 -171 -18 -34 9 -31 48 19 188 47 134 74 182 118 206 22 13 267 55
327 57 19 1 40 -4 47 -11z"/>
<path d="M1300 3390 c-32 -32 -26 -80 14 -119 l35 -34 44 37 c61 50 64 63 25
103 -38 39 -86 45 -118 13z"/>
<path d="M3510 3039 c-38 -15 -78 -58 -91 -96 -33 -101 69 -212 168 -184 79
23 113 67 113 148 0 41 -5 58 -27 84 -44 52 -106 70 -163 48z m84 -96 c-1 -23
4 -33 22 -42 13 -6 24 -15 24 -20 0 -16 -27 -31 -44 -25 -11 4 -22 -1 -32 -15
-28 -39 -49 -27 -45 26 2 14 -5 24 -18 28 -12 4 -21 15 -21 27 0 17 5 20 30
16 23 -4 33 1 46 19 20 31 39 24 38 -14z"/>
<path d="M4180 2786 c-19 -23 -8 -61 18 -64 44 -7 67 32 36 62 -19 20 -38 20
-54 2z"/>
<path d="M4057 2733 c-12 -12 -7 -50 8 -63 19 -15 52 -4 60 21 4 11 1 26 -5
34 -13 15 -51 20 -63 8z"/>
<path d="M4236 2667 c-36 -26 4 -84 42 -61 24 16 27 45 6 61 -10 7 -21 13 -24
13 -3 0 -14 -6 -24 -13z"/>
<path d="M4110 2605 c-14 -17 -5 -51 16 -59 20 -8 54 11 54 29 0 43 -43 62
-70 30z"/>
<path d="M3762 1928 c-17 -17 -15 -55 4 -62 49 -19 109 17 88 52 -13 21 -74
28 -92 10z"/>
<path d="M3402 1828 c-27 -27 -4 -98 32 -98 20 0 39 27 39 55 0 46 -42 72 -71
43z"/>
<path d="M3452 1508 c-26 -26 -7 -98 26 -98 25 0 42 20 42 48 0 51 -38 80 -68
50z"/>
<path d="M1490 1765 c-57 -18 -115 -66 -142 -118 -29 -55 -31 -165 -4 -217 93
-177 335 -184 429 -12 58 106 27 247 -68 312 -71 49 -135 59 -215 35z m112
-187 c-2 -57 -6 -105 -8 -107 -2 -2 -11 4 -20 14 -12 11 -26 15 -45 11 l-28
-5 18 42 c56 128 71 158 79 153 5 -3 7 -52 4 -108z m-48 -134 c42 -7 45 -18
12 -39 -19 -13 -29 -14 -45 -5 -37 19 -50 69 -15 56 7 -3 29 -8 48 -12z"/>
<path d="M3794 1610 c-33 -13 -39 -42 -14 -62 27 -22 49 -23 78 -2 27 18 28
36 4 57 -20 19 -36 20 -68 7z"/>
<path d="M3826 1485 c-23 -23 -20 -44 9 -57 41 -18 80 0 80 37 0 27 -3 30 -36
33 -24 2 -42 -3 -53 -13z"/>
<path d="M3878 1379 c-36 -20 -15 -69 30 -69 51 0 80 38 50 68 -15 15 -57 15
-80 1z"/>
</g>
</svg>
