<?xml version="1.0" encoding="utf-8"?>
<!-- Generator: Adobe Illustrator 16.0.3, SVG Export Plug-In . SVG Version: 6.00 Build 0)  -->
<!DOCTYPE svg PUBLIC "-//W3C//DTD SVG 1.1//EN" "http://www.w3.org/Graphics/SVG/1.1/DTD/svg11.dtd">
<svg version="1.1" id="Layer_1" xmlns="http://www.w3.org/2000/svg" xmlns:xlink="http://www.w3.org/1999/xlink" x="0px" y="0px"
	 width="234px" height="48px" viewBox="0 0 234 48" enable-background="new 0 0 234 48" xml:space="preserve">
<polygon fill="#1430AA" points="117.2,46.9 112.6,46.9 113.6,42.2 118.2,42.2 "/>
<path fill="#00123F" d="M58.9,23l-4.7,24h-8.8l3.4-17.2h-4.3l-0.8,4C42.5,39.5,41.6,47,32.9,47c-1.4,0-3.1-0.2-4.4-0.6l1.2-5.9
	c0.5,0.1,1.4,0.2,1.9,0.2c0.9,0,1.8-0.5,2.4-1.5c0.5-0.7,1.2-2.3,2.4-8.4L38,23H58.9z M71,23h-8.8l-1.3,7h8.9L71,23z M58,44.2
	L57.5,47h8.8l3.2-16.3C62,31.6,59.3,37.4,58,44.2z M109.8,47h-9.3l-0.6-5h-7l-2.5,5h-8.8l12.8-24h11.9L109.8,47z M100,36.2L99.1,29
	H99l-3.9,7.2H100z M87.6,30l3.6-7H74.3l-4.7,24h8.8l3.4-17H87.6z"/>
<g>
	<circle fill-rule="evenodd" clip-rule="evenodd" fill="#FFFFFF" cx="16" cy="16" r="16"/>
	<path fill-rule="evenodd" clip-rule="evenodd" fill="#1430AA" d="M13.2,31.8c-1.9-0.3-3.6-1-5.2-1.9c4-0.2,9.7-1.8,10.6-6.3
		c0.1-0.6,0.1-1.1,0-1.5c3.9-0.1,10.1-1.7,10.9-6.4c0.7-4.2-4.5-5.6-5.8-8.9c-0.4-1.2-0.4-3.4,0.6-4.3c5.5,3.3,8.6,9.7,7.5,16.4
		C30.2,27.4,21.9,33.3,13.2,31.8L13.2,31.8z M7.6,29.7c-5.4-3.4-8.6-9.8-7.4-16.5c1.5-8.6,9.8-14.5,18.5-13c1.8,0.4,3.6,1,5.1,1.9
		C20,2.3,14.2,3.9,13.4,8.4c-0.1,0.6-0.1,1.1,0,1.6c-4,0.1-10.1,1.6-10.9,6.3c-0.7,4.3,4.5,5.6,5.8,8.9C8.7,26.5,8.7,28.7,7.6,29.7
		L7.6,29.7z M13.5,10.2c0.7,2.9,4.7,4.4,5.7,7.2c0.4,1.2,0.4,3.5-0.7,4.4c-0.7-2.9-4.7-4.4-5.7-7.2C12.3,13.4,12.3,11.2,13.5,10.2
		L13.5,10.2z"/>
</g>
<path fill="#1430AA" d="M142,23l-0.9,4h-10.3l-1,5.2h3.9c1.4,0,3.4,0.1,5.1,1.4c1.1,0.9,2.2,2.3,2.2,4.8c0,3.1-1.6,5.5-3.9,6.9
	c-1.5,1-3.6,1.6-6.3,1.6H122l4.9-23.9H142z M127.6,43.2h3c2,0,3.2-0.8,3.9-1.4c0.7-0.7,1.2-1.8,1.2-2.9c0-1.1-0.4-1.7-0.9-2.1
	c-0.7-0.6-1.9-0.8-2.8-0.8h-3L127.6,43.2z"/>
<path fill="#1430AA" d="M150.4,29l-1.8,9.2l-0.8,3.2h0.1L157.9,29h5.2l-3.6,17.9h-4.6l1.8-8.8l0.8-3.4h-0.1l-10.3,12.1h-5l3.6-17.9
	H150.4z"/>
<path fill="#1430AA" d="M167.9,36.1h2.2c0.4,0,1.4,0,2.1-0.5c0.6-0.4,0.9-1.1,0.9-1.6s-0.3-0.9-0.8-1.2c-0.2-0.1-0.9-0.4-2.1-0.4
	c-0.8,0-1.9,0.2-2.6,0.3c-0.2,0-1.2,0.3-2.6,0.9l0.6-3.4c1.2-0.5,2.8-1.1,5.9-1.1c1.6,0,3.4,0.1,4.8,1c1.3,1,1.5,2.2,1.5,3
	c0,2.4-1.6,4.1-3.9,4.6l0,0.1c0.7,0.1,1.4,0.3,2.1,0.9c0.7,0.6,1.1,1.4,1.1,2.4c0,1.7-0.9,3.7-3.5,5.1c-1.9,1-3.8,1.2-5.4,1.2
	c-1.6,0-2.8-0.2-4-0.5c-0.9-0.2-1.7-0.5-2.6-1l1.1-3.3c0.8,0.4,1.6,0.8,2.6,1c1,0.2,2.3,0.4,3.2,0.4c1.2,0,2.1-0.3,2.7-0.7
	c0.7-0.5,1.1-1.1,1.1-1.9c0-0.7-0.3-1.2-0.8-1.5c-0.5-0.3-1.2-0.4-2.6-0.4h-1.8L167.9,36.1z"/>
<path fill="#1430AA" d="M186.8,29l-1.3,7h7.5l1.3-7h4.7l-3.6,17.9h-4.7l1.5-7.6h-7.5l-1.5,7.6h-4.6l3.6-17.9H186.8z"/>
<path fill="#1430AA" d="M204.4,39.5c-0.1,0.3-0.1,0.7-0.1,1c0,1.1,0.5,1.9,1.2,2.5c1.1,0.8,2.6,0.9,3.4,0.9c1.1,0,2-0.1,3-0.4
	c1-0.2,1.8-0.5,2.8-0.9l-0.7,3.5c-1.9,0.7-4,1.1-6.1,1.1c-2.1,0-4.6-0.5-6.1-1.9c-1-0.9-2.2-2.6-2.2-5.5c0-2.6,0.8-5.3,3-7.6
	c1.9-1.9,4.6-3.3,7.9-3.3c2.7,0,4.3,1.1,5.2,2.2c0.8,0.9,1.6,2.4,1.6,4.5c0,1-0.2,2-0.3,2.8l-0.2,1.1H204.4z M212.4,36
	c0.1-0.3,0.1-0.4,0.1-0.8c0-0.7-0.1-1.5-0.6-2c-0.4-0.5-1.1-1-2.3-1c-1.2,0-2.2,0.5-2.9,1.3c-0.4,0.4-1.2,1-1.5,2.5H212.4z"/>
<path fill="#1430AA" d="M232.6,32.8c-0.8-0.3-1.5-0.5-2.3-0.5c-2.4,0-4.1,0.9-5.2,2c-1.3,1.4-2.2,3.4-2.2,5.4c0,1.5,0.6,2.5,1.1,3
	c0.6,0.6,1.5,1.1,3.1,1.1c1.3,0,2.7-0.3,3.7-0.7l-0.5,3.4c-1.3,0.4-2.7,0.7-4.2,0.7c-2,0-4.4-0.4-6.2-2.3c-0.8-0.8-1.8-2.5-1.8-5.3
	c0-3.4,1.5-5.9,3.2-7.5c1.8-1.7,4.6-3.2,8.5-3.2c1.4,0,2.7,0.2,3.8,0.5L232.6,32.8z"/>
</svg>
